<svg width="24" height="24" viewBox="0 0 24 24" fill="none" xmlns="http://www.w3.org/2000/svg">
<path d="M20 11C19.8277 9.76079 19.3708 8.57833 18.6649 7.54534C17.959 6.51235 17.0235 5.65691 15.9316 5.04611C14.8397 4.43531 13.6212 4.08574 12.3715 4.02482C11.1219 3.96391 9.87512 4.19329 8.729 4.695M6.319 6.319C5.53831 7.08105 4.9196 7.99295 4.5 9M4 5V9H8M4 13C4.20611 14.4832 4.81932 15.8801 5.77152 17.0358C6.72371 18.1915 7.97762 19.0606 9.39397 19.5466C10.8103 20.0326 12.3337 20.1164 13.7948 19.7889C15.2559 19.4613 16.5977 18.7351 17.671 17.691M20 16V15H19M3 3L21 21" stroke="currentColor" stroke-width="2" stroke-linecap="round" stroke-linejoin="round"/>
</svg>
